# MagicaVoxel @ Ephtracy

# material
mtllib RoboZomboArmColOnly.mtl
usemtl palette

# normals
vn -1 0 0
vn 1 0 0
vn 0 0 1
vn 0 0 -1
vn 0 -1 0
vn 0 1 0

# texcoords
vt 0.841797 0.5
vt 0.845703 0.5
vt 0.919922 0.5
vt 0.974609 0.5
vt 0.978516 0.5
vt 0.982422 0.5
vt 0.990234 0.5

# verts
v -3 0 3
v -3 0 -3
v -3 1 3
v -3 1 2
v -3 1 -2
v -3 1 -3
v -3 3 3
v -3 3 2
v -3 3 -2
v -3 3 -3
v -3 4 3
v -3 4 -3
v -3 5 3
v -3 5 -3
v -3 6 3
v -3 6 2
v -3 6 1
v -3 6 -1
v -3 6 -2
v -3 6 -3
v -3 7 2
v -3 7 1
v -3 7 -0
v -3 7 -1
v -3 7 -2
v -3 8 1
v -3 8 -0
v -3 8 -1
v -3 9 2
v -3 9 1
v -3 9 -0
v -3 9 -1
v -3 9 -2
v -3 10 2
v -3 10 1
v -3 10 -0
v -3 10 -1
v -3 10 -2
v -3 11 1
v -3 11 -0
v -3 11 -1
v -3 12 2
v -3 12 1
v -3 12 -0
v -3 12 -1
v -3 12 -2
v -3 13 3
v -3 13 2
v -3 13 1
v -3 13 -1
v -3 13 -2
v -3 13 -3
v -3 14 3
v -3 14 -3
v -2 4 2
v -2 4 -2
v -2 5 2
v -2 5 -2
v -1 0 3
v -1 0 -3
v -1 1 3
v -1 1 2
v -1 1 -2
v -1 1 -3
v -1 3 3
v -1 3 2
v -1 3 -2
v -1 3 -3
v -1 13 1
v -1 13 -0
v -1 13 -1
v -1 14 1
v -1 14 -0
v -1 14 -1
v 1 4 1
v 1 4 -1
v 1 5 1
v 1 5 -1
v 1 13 2
v 1 13 1
v 1 13 -1
v 1 13 -2
v 1 14 2
v 1 14 1
v 1 14 -1
v 1 14 -2
v 2 0 3
v 2 0 -3
v 2 1 3
v 2 1 2
v 2 1 -2
v 2 1 -3
v 2 3 3
v 2 3 2
v 2 3 -2
v 2 3 -3
v 2 4 2
v 2 4 -2
v 2 5 2
v 2 5 -2
v 2 6 2
v 2 6 -2
v 2 13 1
v 2 13 -1
v 2 14 1
v 2 14 -1
v -2 0 3
v -2 0 -3
v -2 1 3
v -2 1 2
v -2 1 -2
v -2 1 -3
v -2 3 3
v -2 3 2
v -2 3 -2
v -2 3 -3
v -2 4 2
v -2 4 -2
v -2 5 2
v -2 5 -2
v -2 6 2
v -2 6 1
v -2 6 -1
v -2 6 -2
v -2 7 2
v -2 7 1
v -2 7 -0
v -2 7 -1
v -2 7 -2
v -2 8 1
v -2 8 -0
v -2 8 -1
v -2 9 2
v -2 9 1
v -2 9 -0
v -2 9 -1
v -2 9 -2
v -2 10 2
v -2 10 1
v -2 10 -0
v -2 10 -1
v -2 10 -2
v -2 11 1
v -2 11 -0
v -2 11 -1
v -2 12 2
v -2 12 1
v -2 12 -0
v -2 12 -1
v -2 12 -2
v -2 13 2
v -2 13 1
v -2 13 -1
v -2 13 -2
v -2 14 1
v -2 14 -1
v -1 4 1
v -1 4 -1
v -1 5 1
v -1 5 -1
v -1 13 2
v -1 13 1
v -1 13 -1
v -1 13 -2
v -1 14 2
v -1 14 1
v -1 14 -1
v -1 14 -2
v 1 0 3
v 1 0 -3
v 1 1 3
v 1 1 2
v 1 1 -2
v 1 1 -3
v 1 3 3
v 1 3 2
v 1 3 -2
v 1 3 -3
v 1 13 1
v 1 13 -0
v 1 13 -1
v 1 14 1
v 1 14 -0
v 1 14 -1
v 2 4 2
v 2 4 -2
v 2 5 2
v 2 5 -2
v 3 0 3
v 3 0 -3
v 3 1 3
v 3 1 2
v 3 1 -2
v 3 1 -3
v 3 3 3
v 3 3 2
v 3 3 -2
v 3 3 -3
v 3 4 3
v 3 4 -3
v 3 5 3
v 3 5 -3
v 3 6 3
v 3 6 -3
v 3 13 3
v 3 13 -3
v 3 14 3
v 3 14 -3
v -3 0 3
v -3 1 3
v -3 3 3
v -3 4 3
v -3 5 3
v -3 6 3
v -3 13 3
v -3 14 3
v -2 0 3
v -2 1 3
v -2 3 3
v -1 0 3
v -1 1 3
v -1 3 3
v 1 0 3
v 1 1 3
v 1 3 3
v 2 0 3
v 2 1 3
v 2 3 3
v 3 0 3
v 3 1 3
v 3 3 3
v 3 4 3
v 3 5 3
v 3 6 3
v 3 13 3
v 3 14 3
v -3 6 2
v -3 7 2
v -3 9 2
v -3 10 2
v -3 12 2
v -3 13 2
v -2 4 2
v -2 5 2
v -2 6 2
v -2 7 2
v -2 9 2
v -2 10 2
v -2 12 2
v -2 13 2
v 2 4 2
v 2 5 2
v -3 7 1
v -3 8 1
v -3 9 1
v -3 10 1
v -3 11 1
v -3 12 1
v -2 7 1
v -2 8 1
v -2 9 1
v -2 10 1
v -2 11 1
v -2 12 1
v -1 13 1
v -1 14 1
v 0 13 1
v 0 14 1
v 1 13 1
v 1 14 1
v -3 6 -1
v -3 7 -1
v -3 9 -1
v -3 10 -1
v -3 12 -1
v -3 13 -1
v -2 6 -1
v -2 7 -1
v -2 9 -1
v -2 10 -1
v -2 12 -1
v -2 13 -1
v -2 14 -1
v -1 4 -1
v -1 5 -1
v -1 13 -1
v -1 14 -1
v 1 4 -1
v 1 5 -1
v 1 13 -1
v 1 14 -1
v 2 13 -1
v 2 14 -1
v -3 1 -2
v -3 3 -2
v -2 1 -2
v -2 3 -2
v -2 4 -2
v -2 5 -2
v -2 6 -2
v -1 1 -2
v -1 3 -2
v -1 13 -2
v -1 14 -2
v 1 1 -2
v 1 3 -2
v 1 13 -2
v 1 14 -2
v 2 1 -2
v 2 3 -2
v 2 4 -2
v 2 5 -2
v 2 6 -2
v 3 1 -2
v 3 3 -2
v -3 1 2
v -3 3 2
v -2 1 2
v -2 3 2
v -2 4 2
v -2 5 2
v -2 6 2
v -1 1 2
v -1 3 2
v -1 13 2
v -1 14 2
v 1 1 2
v 1 3 2
v 1 13 2
v 1 14 2
v 2 1 2
v 2 3 2
v 2 4 2
v 2 5 2
v 2 6 2
v 3 1 2
v 3 3 2
v -3 6 1
v -3 7 1
v -3 9 1
v -3 10 1
v -3 12 1
v -3 13 1
v -2 6 1
v -2 7 1
v -2 9 1
v -2 10 1
v -2 12 1
v -2 13 1
v -2 14 1
v -1 4 1
v -1 5 1
v -1 13 1
v -1 14 1
v 1 4 1
v 1 5 1
v 1 13 1
v 1 14 1
v 2 13 1
v 2 14 1
v -3 7 -1
v -3 8 -1
v -3 9 -1
v -3 10 -1
v -3 11 -1
v -3 12 -1
v -2 7 -1
v -2 8 -1
v -2 9 -1
v -2 10 -1
v -2 11 -1
v -2 12 -1
v -1 13 -1
v -1 14 -1
v 0 13 -1
v 0 14 -1
v 1 13 -1
v 1 14 -1
v -3 6 -2
v -3 7 -2
v -3 9 -2
v -3 10 -2
v -3 12 -2
v -3 13 -2
v -2 4 -2
v -2 5 -2
v -2 6 -2
v -2 7 -2
v -2 9 -2
v -2 10 -2
v -2 12 -2
v -2 13 -2
v 2 4 -2
v 2 5 -2
v -3 0 -3
v -3 1 -3
v -3 3 -3
v -3 4 -3
v -3 5 -3
v -3 6 -3
v -3 13 -3
v -3 14 -3
v -2 0 -3
v -2 1 -3
v -2 3 -3
v -1 0 -3
v -1 1 -3
v -1 3 -3
v 1 0 -3
v 1 1 -3
v 1 3 -3
v 2 0 -3
v 2 1 -3
v 2 3 -3
v 3 0 -3
v 3 1 -3
v 3 3 -3
v 3 4 -3
v 3 5 -3
v 3 6 -3
v 3 13 -3
v 3 14 -3
v -3 0 3
v -2 0 3
v -1 0 3
v 1 0 3
v 2 0 3
v 3 0 3
v -3 0 -3
v -2 0 -3
v -1 0 -3
v 1 0 -3
v 2 0 -3
v 3 0 -3
v -2 3 3
v -1 3 3
v 1 3 3
v 2 3 3
v -3 3 2
v -2 3 2
v -1 3 2
v 1 3 2
v 2 3 2
v 3 3 2
v -3 3 -2
v -2 3 -2
v -1 3 -2
v 1 3 -2
v 2 3 -2
v 3 3 -2
v -2 3 -3
v -1 3 -3
v 1 3 -3
v 2 3 -3
v -2 4 2
v 2 4 2
v -1 4 1
v 1 4 1
v -1 4 -1
v 1 4 -1
v -2 4 -2
v 2 4 -2
v -3 5 3
v 3 5 3
v -2 5 2
v 2 5 2
v -2 5 -2
v 2 5 -2
v -3 5 -3
v 3 5 -3
v -3 7 1
v -2 7 1
v -3 7 -0
v -2 7 -0
v -3 7 -1
v -2 7 -1
v -3 9 2
v -2 9 2
v -3 9 1
v -2 9 1
v -3 9 -1
v -2 9 -1
v -3 9 -2
v -2 9 -2
v -3 10 1
v -2 10 1
v -3 10 -0
v -2 10 -0
v -3 10 -1
v -2 10 -1
v -3 12 2
v -2 12 2
v -3 12 1
v -2 12 1
v -3 12 -1
v -2 12 -1
v -3 12 -2
v -2 12 -2
v -3 13 3
v 3 13 3
v -3 13 2
v -2 13 2
v -1 13 2
v 1 13 2
v 2 13 2
v -3 13 1
v -2 13 1
v -1 13 1
v 0 13 1
v 1 13 1
v 2 13 1
v -1 13 -0
v 0 13 -0
v 1 13 -0
v -3 13 -1
v -2 13 -1
v -1 13 -1
v 0 13 -1
v 1 13 -1
v 2 13 -1
v -3 13 -2
v -2 13 -2
v -1 13 -2
v 1 13 -2
v 2 13 -2
v -3 13 -3
v 3 13 -3
v -3 1 2
v -2 1 2
v -1 1 2
v 1 1 2
v 2 1 2
v 3 1 2
v -3 1 -2
v -2 1 -2
v -1 1 -2
v 1 1 -2
v 2 1 -2
v 3 1 -2
v -3 4 3
v 3 4 3
v -2 4 2
v 2 4 2
v -2 4 -2
v 2 4 -2
v -3 4 -3
v 3 4 -3
v -2 5 2
v 2 5 2
v -1 5 1
v 1 5 1
v -1 5 -1
v 1 5 -1
v -2 5 -2
v 2 5 -2
v -3 6 3
v 3 6 3
v -3 6 2
v -2 6 2
v 2 6 2
v -3 6 1
v -2 6 1
v -3 6 -1
v -2 6 -1
v -3 6 -2
v -2 6 -2
v 2 6 -2
v -3 6 -3
v 3 6 -3
v -3 7 2
v -2 7 2
v -3 7 1
v -2 7 1
v -3 7 -1
v -2 7 -1
v -3 7 -2
v -2 7 -2
v -3 9 1
v -2 9 1
v -3 9 -0
v -2 9 -0
v -3 9 -1
v -2 9 -1
v -3 10 2
v -2 10 2
v -3 10 1
v -2 10 1
v -3 10 -1
v -2 10 -1
v -3 10 -2
v -2 10 -2
v -3 12 1
v -2 12 1
v -3 12 -0
v -2 12 -0
v -3 12 -1
v -2 12 -1
v -3 14 3
v 3 14 3
v -2 14 2
v -1 14 2
v 1 14 2
v 2 14 2
v -2 14 1
v -1 14 1
v 0 14 1
v 1 14 1
v 2 14 1
v -1 14 -0
v 0 14 -0
v 1 14 -0
v -2 14 -1
v -1 14 -1
v 0 14 -1
v 1 14 -1
v 2 14 -1
v -2 14 -2
v -1 14 -2
v 1 14 -2
v 2 14 -2
v -3 14 -3
v 3 14 -3

# faces
f 3/2/1 2/2/1 1/2/1
f 4/2/1 2/2/1 3/2/1
f 5/2/1 2/2/1 4/2/1
f 6/2/1 2/2/1 5/2/1
f 7/5/1 4/5/1 3/5/1
f 8/5/1 4/5/1 7/5/1
f 9/4/1 6/4/1 5/4/1
f 10/4/1 6/4/1 9/4/1
f 11/6/1 8/6/1 7/6/1
f 11/6/1 9/6/1 8/6/1
f 11/6/1 10/6/1 9/6/1
f 12/6/1 10/6/1 11/6/1
f 15/6/1 14/6/1 13/6/1
f 16/6/1 14/6/1 15/6/1
f 17/6/1 14/6/1 16/6/1
f 18/6/1 14/6/1 17/6/1
f 19/6/1 14/6/1 18/6/1
f 20/6/1 14/6/1 19/6/1
f 21/2/1 17/2/1 16/2/1
f 22/2/1 17/2/1 21/2/1
f 24/3/1 19/3/1 18/3/1
f 25/3/1 19/3/1 24/3/1
f 26/2/1 23/2/1 22/2/1
f 27/3/1 24/3/1 23/3/1
f 27/2/1 23/2/1 26/2/1
f 28/3/1 24/3/1 27/3/1
f 30/3/1 27/3/1 26/3/1
f 31/2/1 28/2/1 27/2/1
f 31/3/1 27/3/1 30/3/1
f 32/2/1 28/2/1 31/2/1
f 34/3/1 30/3/1 29/3/1
f 35/3/1 30/3/1 34/3/1
f 37/2/1 33/2/1 32/2/1
f 38/2/1 33/2/1 37/2/1
f 39/3/1 36/3/1 35/3/1
f 40/2/1 37/2/1 36/2/1
f 40/3/1 36/3/1 39/3/1
f 41/2/1 37/2/1 40/2/1
f 43/2/1 40/2/1 39/2/1
f 44/3/1 41/3/1 40/3/1
f 44/2/1 40/2/1 43/2/1
f 45/3/1 41/3/1 44/3/1
f 48/2/1 43/2/1 42/2/1
f 49/2/1 43/2/1 48/2/1
f 50/3/1 46/3/1 45/3/1
f 51/3/1 46/3/1 50/3/1
f 53/6/1 51/6/1 50/6/1
f 53/6/1 52/6/1 51/6/1
f 53/6/1 50/6/1 49/6/1
f 53/6/1 48/6/1 47/6/1
f 53/6/1 49/6/1 48/6/1
f 54/6/1 52/6/1 53/6/1
f 57/7/1 56/7/1 55/7/1
f 58/7/1 56/7/1 57/7/1
f 61/2/1 60/2/1 59/2/1
f 62/2/1 60/2/1 61/2/1
f 63/2/1 60/2/1 62/2/1
f 64/2/1 60/2/1 63/2/1
f 65/5/1 62/5/1 61/5/1
f 66/5/1 62/5/1 65/5/1
f 67/4/1 64/4/1 63/4/1
f 68/4/1 64/4/1 67/4/1
f 72/1/1 70/1/1 69/1/1
f 73/3/1 71/3/1 70/3/1
f 73/1/1 70/1/1 72/1/1
f 74/3/1 71/3/1 73/3/1
f 77/7/1 76/7/1 75/7/1
f 78/7/1 76/7/1 77/7/1
f 83/3/1 80/3/1 79/3/1
f 84/3/1 80/3/1 83/3/1
f 85/2/1 82/2/1 81/2/1
f 86/2/1 82/2/1 85/2/1
f 89/2/1 88/2/1 87/2/1
f 90/2/1 88/2/1 89/2/1
f 91/2/1 88/2/1 90/2/1
f 92/2/1 88/2/1 91/2/1
f 93/4/1 90/4/1 89/4/1
f 94/4/1 90/4/1 93/4/1
f 95/4/1 92/4/1 91/4/1
f 96/4/1 92/4/1 95/4/1
f 97/6/1 95/6/1 94/6/1
f 98/6/1 95/6/1 97/6/1
f 101/6/1 100/6/1 99/6/1
f 102/6/1 100/6/1 101/6/1
f 105/6/1 104/6/1 103/6/1
f 106/6/1 104/6/1 105/6/1
f 107/2/2 108/2/2 109/2/2
f 109/2/2 108/2/2 110/2/2
f 110/2/2 108/2/2 111/2/2
f 111/2/2 108/2/2 112/2/2
f 109/5/2 110/5/2 113/5/2
f 113/5/2 110/5/2 114/5/2
f 111/4/2 112/4/2 115/4/2
f 115/4/2 112/4/2 116/4/2
f 114/6/2 115/6/2 117/6/2
f 117/6/2 115/6/2 118/6/2
f 119/6/2 120/6/2 121/6/2
f 121/6/2 120/6/2 122/6/2
f 122/6/2 120/6/2 123/6/2
f 123/6/2 120/6/2 124/6/2
f 121/2/2 122/2/2 125/2/2
f 125/2/2 122/2/2 126/2/2
f 123/3/2 124/3/2 128/3/2
f 128/3/2 124/3/2 129/3/2
f 126/2/2 127/2/2 130/2/2
f 127/3/2 128/3/2 131/3/2
f 130/2/2 127/2/2 131/2/2
f 131/3/2 128/3/2 132/3/2
f 130/3/2 131/3/2 134/3/2
f 131/2/2 132/2/2 135/2/2
f 134/3/2 131/3/2 135/3/2
f 135/2/2 132/2/2 136/2/2
f 133/3/2 134/3/2 138/3/2
f 138/3/2 134/3/2 139/3/2
f 136/2/2 137/2/2 141/2/2
f 141/2/2 137/2/2 142/2/2
f 139/3/2 140/3/2 143/3/2
f 140/2/2 141/2/2 144/2/2
f 143/3/2 140/3/2 144/3/2
f 144/2/2 141/2/2 145/2/2
f 143/2/2 144/2/2 147/2/2
f 144/3/2 145/3/2 148/3/2
f 147/2/2 144/2/2 148/2/2
f 148/3/2 145/3/2 149/3/2
f 146/2/2 147/2/2 151/2/2
f 151/2/2 147/2/2 152/2/2
f 149/3/2 150/3/2 153/3/2
f 153/3/2 150/3/2 154/3/2
f 152/6/2 153/6/2 155/6/2
f 155/6/2 153/6/2 156/6/2
f 157/7/2 158/7/2 159/7/2
f 159/7/2 158/7/2 160/7/2
f 161/2/2 162/2/2 165/2/2
f 165/2/2 162/2/2 166/2/2
f 163/3/2 164/3/2 167/3/2
f 167/3/2 164/3/2 168/3/2
f 169/2/2 170/2/2 171/2/2
f 171/2/2 170/2/2 172/2/2
f 172/2/2 170/2/2 173/2/2
f 173/2/2 170/2/2 174/2/2
f 171/5/2 172/5/2 175/5/2
f 175/5/2 172/5/2 176/5/2
f 173/4/2 174/4/2 177/4/2
f 177/4/2 174/4/2 178/4/2
f 179/3/2 180/3/2 182/3/2
f 180/1/2 181/1/2 183/1/2
f 182/3/2 180/3/2 183/3/2
f 183/1/2 181/1/2 184/1/2
f 185/7/2 186/7/2 187/7/2
f 187/7/2 186/7/2 188/7/2
f 189/2/2 190/2/2 191/2/2
f 191/2/2 190/2/2 192/2/2
f 192/2/2 190/2/2 193/2/2
f 193/2/2 190/2/2 194/2/2
f 191/4/2 192/4/2 195/4/2
f 195/4/2 192/4/2 196/4/2
f 193/4/2 194/4/2 197/4/2
f 197/4/2 194/4/2 198/4/2
f 195/6/2 196/6/2 199/6/2
f 196/6/2 197/6/2 199/6/2
f 197/6/2 198/6/2 199/6/2
f 199/6/2 198/6/2 200/6/2
f 201/6/2 202/6/2 203/6/2
f 203/6/2 202/6/2 204/6/2
f 205/6/2 206/6/2 207/6/2
f 207/6/2 206/6/2 208/6/2
f 217/2/3 210/2/3 209/2/3
f 218/5/3 211/5/3 210/5/3
f 218/2/3 210/2/3 217/2/3
f 219/6/3 212/6/3 211/6/3
f 219/5/3 211/5/3 218/5/3
f 222/6/3 212/6/3 219/6/3
f 223/2/3 221/2/3 220/2/3
f 224/5/3 222/5/3 221/5/3
f 224/2/3 221/2/3 223/2/3
f 225/6/3 212/6/3 222/6/3
f 225/5/3 222/5/3 224/5/3
f 228/6/3 212/6/3 225/6/3
f 229/2/3 227/2/3 226/2/3
f 230/4/3 228/4/3 227/4/3
f 230/2/3 227/2/3 229/2/3
f 231/6/3 212/6/3 228/6/3
f 231/4/3 228/4/3 230/4/3
f 232/6/3 212/6/3 231/6/3
f 233/6/3 214/6/3 213/6/3
f 234/6/3 214/6/3 233/6/3
f 235/6/3 216/6/3 215/6/3
f 236/6/3 216/6/3 235/6/3
f 245/2/3 238/2/3 237/2/3
f 246/2/3 238/2/3 245/2/3
f 247/3/3 240/3/3 239/3/3
f 248/3/3 240/3/3 247/3/3
f 249/2/3 242/2/3 241/2/3
f 250/2/3 242/2/3 249/2/3
f 251/7/3 244/7/3 243/7/3
f 252/7/3 244/7/3 251/7/3
f 259/2/3 254/2/3 253/2/3
f 260/3/3 255/3/3 254/3/3
f 260/2/3 254/2/3 259/2/3
f 261/3/3 255/3/3 260/3/3
f 262/3/3 257/3/3 256/3/3
f 263/2/3 258/2/3 257/2/3
f 263/3/3 257/3/3 262/3/3
f 264/2/3 258/2/3 263/2/3
f 267/1/3 266/1/3 265/1/3
f 268/1/3 266/1/3 267/1/3
f 269/3/3 268/3/3 267/3/3
f 270/3/3 268/3/3 269/3/3
f 277/3/3 272/3/3 271/3/3
f 278/3/3 272/3/3 277/3/3
f 279/2/3 274/2/3 273/2/3
f 280/2/3 274/2/3 279/2/3
f 281/3/3 276/3/3 275/3/3
f 282/3/3 276/3/3 281/3/3
f 286/3/3 283/3/3 282/3/3
f 287/3/3 283/3/3 286/3/3
f 288/7/3 285/7/3 284/7/3
f 289/7/3 285/7/3 288/7/3
f 292/2/3 291/2/3 290/2/3
f 293/2/3 291/2/3 292/2/3
f 296/4/3 295/4/3 294/4/3
f 297/4/3 295/4/3 296/4/3
f 302/6/3 298/6/3 297/6/3
f 305/4/3 302/4/3 301/4/3
f 306/6/3 298/6/3 302/6/3
f 306/4/3 302/4/3 305/4/3
f 307/6/3 304/6/3 303/6/3
f 308/6/3 304/6/3 307/6/3
f 310/6/3 298/6/3 306/6/3
f 311/6/3 298/6/3 310/6/3
f 312/6/3 300/6/3 299/6/3
f 313/6/3 300/6/3 312/6/3
f 314/4/3 310/4/3 309/4/3
f 315/4/3 310/4/3 314/4/3
f 316/5/4 317/5/4 318/5/4
f 318/5/4 317/5/4 319/5/4
f 319/6/4 320/6/4 324/6/4
f 323/5/4 324/5/4 327/5/4
f 324/6/4 320/6/4 328/6/4
f 327/5/4 324/5/4 328/5/4
f 325/6/4 326/6/4 329/6/4
f 329/6/4 326/6/4 330/6/4
f 328/6/4 320/6/4 332/6/4
f 332/6/4 320/6/4 333/6/4
f 321/6/4 322/6/4 334/6/4
f 334/6/4 322/6/4 335/6/4
f 331/4/4 332/4/4 336/4/4
f 336/4/4 332/4/4 337/4/4
f 338/2/4 339/2/4 344/2/4
f 344/2/4 339/2/4 345/2/4
f 340/3/4 341/3/4 346/3/4
f 346/3/4 341/3/4 347/3/4
f 342/2/4 343/2/4 348/2/4
f 348/2/4 343/2/4 349/2/4
f 349/2/4 350/2/4 353/2/4
f 353/2/4 350/2/4 354/2/4
f 351/7/4 352/7/4 355/7/4
f 355/7/4 352/7/4 356/7/4
f 357/3/4 358/3/4 359/3/4
f 359/3/4 358/3/4 360/3/4
f 361/3/4 362/3/4 367/3/4
f 362/2/4 363/2/4 368/2/4
f 367/3/4 362/3/4 368/3/4
f 368/2/4 363/2/4 369/2/4
f 364/2/4 365/2/4 370/2/4
f 365/3/4 366/3/4 371/3/4
f 370/2/4 365/2/4 371/2/4
f 371/3/4 366/3/4 372/3/4
f 373/3/4 374/3/4 375/3/4
f 375/3/4 374/3/4 376/3/4
f 375/1/4 376/1/4 377/1/4
f 377/1/4 376/1/4 378/1/4
f 379/3/4 380/3/4 387/3/4
f 387/3/4 380/3/4 388/3/4
f 381/2/4 382/2/4 389/2/4
f 389/2/4 382/2/4 390/2/4
f 383/3/4 384/3/4 391/3/4
f 391/3/4 384/3/4 392/3/4
f 385/7/4 386/7/4 393/7/4
f 393/7/4 386/7/4 394/7/4
f 395/2/4 396/2/4 403/2/4
f 396/4/4 397/4/4 404/4/4
f 403/2/4 396/2/4 404/2/4
f 397/6/4 398/6/4 405/6/4
f 404/4/4 397/4/4 405/4/4
f 405/6/4 398/6/4 408/6/4
f 406/2/4 407/2/4 409/2/4
f 407/4/4 408/4/4 410/4/4
f 409/2/4 407/2/4 410/2/4
f 408/6/4 398/6/4 411/6/4
f 410/4/4 408/4/4 411/4/4
f 411/6/4 398/6/4 414/6/4
f 412/2/4 413/2/4 415/2/4
f 413/4/4 414/4/4 416/4/4
f 415/2/4 413/2/4 416/2/4
f 414/6/4 398/6/4 417/6/4
f 416/4/4 414/4/4 417/4/4
f 417/6/4 398/6/4 418/6/4
f 399/6/4 400/6/4 419/6/4
f 419/6/4 400/6/4 420/6/4
f 401/6/4 402/6/4 421/6/4
f 421/6/4 402/6/4 422/6/4
f 429/2/5 424/2/5 423/2/5
f 430/2/5 424/2/5 429/2/5
f 431/2/5 426/2/5 425/2/5
f 432/2/5 426/2/5 431/2/5
f 433/2/5 428/2/5 427/2/5
f 434/2/5 428/2/5 433/2/5
f 440/6/5 436/6/5 435/6/5
f 441/6/5 436/6/5 440/6/5
f 442/6/5 438/6/5 437/6/5
f 443/6/5 438/6/5 442/6/5
f 445/6/5 440/6/5 439/6/5
f 446/6/5 440/6/5 445/6/5
f 449/6/5 444/6/5 443/6/5
f 450/6/5 444/6/5 449/6/5
f 451/6/5 447/6/5 446/6/5
f 452/6/5 447/6/5 451/6/5
f 453/6/5 449/6/5 448/6/5
f 454/6/5 449/6/5 453/6/5
f 457/7/5 456/7/5 455/7/5
f 458/7/5 456/7/5 457/7/5
f 459/7/5 457/7/5 455/7/5
f 460/7/5 456/7/5 458/7/5
f 461/7/5 459/7/5 455/7/5
f 461/7/5 460/7/5 459/7/5
f 462/7/5 456/7/5 460/7/5
f 462/7/5 460/7/5 461/7/5
f 465/6/5 464/6/5 463/6/5
f 466/6/5 464/6/5 465/6/5
f 467/6/5 465/6/5 463/6/5
f 468/6/5 464/6/5 466/6/5
f 469/6/5 467/6/5 463/6/5
f 469/6/5 468/6/5 467/6/5
f 470/6/5 464/6/5 468/6/5
f 470/6/5 468/6/5 469/6/5
f 473/2/5 472/2/5 471/2/5
f 474/2/5 472/2/5 473/2/5
f 475/3/5 474/3/5 473/3/5
f 476/3/5 474/3/5 475/3/5
f 479/3/5 478/3/5 477/3/5
f 480/3/5 478/3/5 479/3/5
f 483/2/5 482/2/5 481/2/5
f 484/2/5 482/2/5 483/2/5
f 487/3/5 486/3/5 485/3/5
f 488/3/5 486/3/5 487/3/5
f 489/2/5 488/2/5 487/2/5
f 490/2/5 488/2/5 489/2/5
f 493/2/5 492/2/5 491/2/5
f 494/2/5 492/2/5 493/2/5
f 497/3/5 496/3/5 495/3/5
f 498/3/5 496/3/5 497/3/5
f 501/6/5 500/6/5 499/6/5
f 502/6/5 500/6/5 501/6/5
f 503/6/5 500/6/5 502/6/5
f 504/6/5 500/6/5 503/6/5
f 505/6/5 500/6/5 504/6/5
f 507/2/5 503/2/5 502/2/5
f 508/2/5 503/2/5 507/2/5
f 510/3/5 505/3/5 504/3/5
f 511/6/5 500/6/5 505/6/5
f 511/3/5 505/3/5 510/3/5
f 512/1/5 509/1/5 508/1/5
f 513/3/5 510/3/5 509/3/5
f 513/1/5 509/1/5 512/1/5
f 514/3/5 510/3/5 513/3/5
f 515/6/5 507/6/5 506/6/5
f 516/6/5 507/6/5 515/6/5
f 517/3/5 513/3/5 512/3/5
f 518/1/5 514/1/5 513/1/5
f 518/3/5 513/3/5 517/3/5
f 519/1/5 514/1/5 518/1/5
f 520/6/5 500/6/5 511/6/5
f 522/3/5 517/3/5 516/3/5
f 523/3/5 517/3/5 522/3/5
f 524/2/5 520/2/5 519/2/5
f 525/6/5 500/6/5 520/6/5
f 525/2/5 520/2/5 524/2/5
f 526/6/5 523/6/5 522/6/5
f 526/6/5 524/6/5 523/6/5
f 526/6/5 525/6/5 524/6/5
f 526/6/5 522/6/5 521/6/5
f 527/6/5 500/6/5 525/6/5
f 527/6/5 525/6/5 526/6/5
f 528/2/6 529/2/6 534/2/6
f 534/2/6 529/2/6 535/2/6
f 530/2/6 531/2/6 536/2/6
f 536/2/6 531/2/6 537/2/6
f 532/2/6 533/2/6 538/2/6
f 538/2/6 533/2/6 539/2/6
f 540/6/6 541/6/6 542/6/6
f 542/6/6 541/6/6 543/6/6
f 540/6/6 542/6/6 544/6/6
f 543/6/6 541/6/6 545/6/6
f 540/6/6 544/6/6 546/6/6
f 544/6/6 545/6/6 546/6/6
f 545/6/6 541/6/6 547/6/6
f 546/6/6 545/6/6 547/6/6
f 548/7/6 549/7/6 550/7/6
f 550/7/6 549/7/6 551/7/6
f 548/7/6 550/7/6 552/7/6
f 551/7/6 549/7/6 553/7/6
f 548/7/6 552/7/6 554/7/6
f 552/7/6 553/7/6 554/7/6
f 553/7/6 549/7/6 555/7/6
f 554/7/6 553/7/6 555/7/6
f 556/6/6 557/6/6 558/6/6
f 558/6/6 557/6/6 559/6/6
f 559/6/6 557/6/6 560/6/6
f 561/6/6 562/6/6 563/6/6
f 563/6/6 562/6/6 564/6/6
f 560/6/6 557/6/6 567/6/6
f 565/6/6 566/6/6 568/6/6
f 566/6/6 567/6/6 568/6/6
f 567/6/6 557/6/6 569/6/6
f 568/6/6 567/6/6 569/6/6
f 570/2/6 571/2/6 572/2/6
f 572/2/6 571/2/6 573/2/6
f 574/3/6 575/3/6 576/3/6
f 576/3/6 575/3/6 577/3/6
f 578/3/6 579/3/6 580/3/6
f 580/3/6 579/3/6 581/3/6
f 580/2/6 581/2/6 582/2/6
f 582/2/6 581/2/6 583/2/6
f 584/3/6 585/3/6 586/3/6
f 586/3/6 585/3/6 587/3/6
f 588/2/6 589/2/6 590/2/6
f 590/2/6 589/2/6 591/2/6
f 592/2/6 593/2/6 594/2/6
f 594/2/6 593/2/6 595/2/6
f 594/3/6 595/3/6 596/3/6
f 596/3/6 595/3/6 597/3/6
f 598/6/6 599/6/6 600/6/6
f 600/6/6 599/6/6 601/6/6
f 601/6/6 599/6/6 602/6/6
f 602/6/6 599/6/6 603/6/6
f 598/6/6 600/6/6 604/6/6
f 600/2/6 601/2/6 604/2/6
f 604/2/6 601/2/6 605/2/6
f 602/3/6 603/3/6 607/3/6
f 603/6/6 599/6/6 608/6/6
f 607/3/6 603/3/6 608/3/6
f 605/1/6 606/1/6 609/1/6
f 606/3/6 607/3/6 610/3/6
f 609/1/6 606/1/6 610/1/6
f 610/3/6 607/3/6 611/3/6
f 598/6/6 604/6/6 612/6/6
f 609/3/6 610/3/6 613/3/6
f 610/1/6 611/1/6 614/1/6
f 613/3/6 610/3/6 614/3/6
f 614/1/6 611/1/6 615/1/6
f 608/6/6 599/6/6 616/6/6
f 598/6/6 612/6/6 617/6/6
f 612/3/6 613/3/6 617/3/6
f 617/3/6 613/3/6 618/3/6
f 615/2/6 616/2/6 619/2/6
f 616/6/6 599/6/6 620/6/6
f 619/2/6 616/2/6 620/2/6
f 617/6/6 618/6/6 621/6/6
f 618/6/6 619/6/6 621/6/6
f 619/6/6 620/6/6 621/6/6
f 598/6/6 617/6/6 621/6/6
f 620/6/6 599/6/6 622/6/6
f 621/6/6 620/6/6 622/6/6
